<?xml version="1.0" encoding="utf-8"?>
<!-- Generator: Adobe Illustrator 22.1.0, SVG Export Plug-In . SVG Version: 6.00 Build 0)  -->
<svg version="1.1" id="Monogram_copy_8" xmlns="http://www.w3.org/2000/svg" xmlns:xlink="http://www.w3.org/1999/xlink" x="0px"
	 y="0px" viewBox="0 0 30 30" style="enable-background:new 0 0 30 30;" xml:space="preserve">
<style type="text/css">
	.st0{fill:#7A7A7A;}
</style>
<g>
	<path class="st0" d="M0.8,16.4c0-1.9,0-3.8,0-5.7c0-1.5,0.8-2.4,2-2.4c1.2,0,2,1,2,2.4c0,3.7,0,7.5,0,11.2c0,1.4,0.7,2.5,2,2.9
		c1.4,0.5,2.9-0.2,3.6-1.5c0.6-1.3,0.2-2.9-1.1-3.7c-0.6-0.4-1.2-0.9-1.3-1.7c-0.1-0.8,0.2-1.5,0.9-2c0.7-0.5,1.5-0.4,2.2,0
		c2.5,1.4,3.9,4.1,3.5,7.1c-0.3,2.7-2.4,5-5.1,5.7c-4.4,1.2-8.7-2.1-8.8-6.7C0.8,20.3,0.8,18.4,0.8,16.4z"/>
	<path class="st0" d="M29.2,21.5c0,1.6-0.6,2.5-1.7,2.7c-1.3,0.2-2.3-0.7-2.3-2.2c0-2.7-0.6-5.2-1.9-7.6C20.5,9,16,5.9,10.1,4.9
		c-1.4-0.2-2.2-1.1-2-2.4c0.2-1.2,1.2-1.8,2.5-1.6C20.9,2.2,29,11.1,29.2,21.5z"/>
	<path class="st0" d="M22,21.4c0,0.6,0,1-0.1,1.4c-0.3,0.9-1.2,1.5-2.1,1.4c-0.9-0.1-1.6-0.8-1.8-1.7c-0.1-0.9-0.1-1.9-0.4-2.8
		c-1.1-4-3.7-6.5-7.8-7.4c-0.9-0.2-1.5-0.7-1.7-1.6C7.8,9.2,8.8,8,10.2,8.2c1,0.1,2,0.4,2.9,0.8C18.6,11.3,21.4,15.6,22,21.4z"/>
</g>
</svg>
