<?xml version="1.0" encoding="utf-8"?>
<!-- Generator: Adobe Illustrator 21.1.0, SVG Export Plug-In . SVG Version: 6.00 Build 0)  -->
<svg version="1.1" id="Monogram_copy_8" xmlns="http://www.w3.org/2000/svg" xmlns:xlink="http://www.w3.org/1999/xlink" x="0px"
	 y="0px" viewBox="0 0 30 30" style="enable-background:new 0 0 30 30;" xml:space="preserve">
<style type="text/css">
	.st0{fill:#7A7A7A;}
</style>
<g>
	<path class="st0" d="M11.2,15c-0.7,0-1.3,0-1.9,0c-0.3,0-0.7,0.1-0.9-0.1c-0.2-0.1-0.1-0.6-0.1-0.8c0-1.2,0-2.5,0-3.7
		c0-0.1,0-0.2,0-0.4c0.9,0,1.9,0,2.8,0c0-0.4,0-0.7,0-1.1c0-1.2,0-2.3,0.1-3.5C11.5,2.8,13.4,1,16,0.8c1.5-0.1,3-0.1,4.5-0.1
		c0.3,0,0.6,0,0.9,0c0,0.8,0,1.6,0,2.4s0,1.6,0,2.5c-0.1,0-0.2,0-0.4,0c-0.9,0-1.8,0-2.7,0C17.5,5.6,17,6,17,6.8c-0.1,1,0,2.1,0,3.1
		c1.5,0,3,0,4.5,0c0,0.3,0,0.6-0.1,0.9c-0.1,1.3-0.3,2.6-0.4,3.9c0,0.2-0.1,0.3-0.3,0.3c-1.1,0-2.2,0-3.3,0c-0.1,0-0.3,0-0.4,0
		c0,4.8,0,9.5,0,14.2c-2,0-3.9,0-5.9,0C11.2,24.5,11.2,19.8,11.2,15z"/>
</g>
</svg>
