<?xml version="1.0" encoding="utf-8"?>
<!-- Generator: Adobe Illustrator 21.1.0, SVG Export Plug-In . SVG Version: 6.00 Build 0)  -->
<svg version="1.1" id="Monogram_copy_8" xmlns="http://www.w3.org/2000/svg" xmlns:xlink="http://www.w3.org/1999/xlink" x="0px"
	 y="0px" viewBox="0 0 30 30" style="enable-background:new 0 0 30 30;" xml:space="preserve">
<style type="text/css">
	.st0{fill:#7A7A7A;}
</style>
<g>
	<path class="st0" d="M21.4,29.3c-4.3,0-8.5,0-12.8,0H8.5c-0.2,0-0.5,0-0.7-0.1C7,29,6.2,28.8,5.5,28.5C4,27.8,2.9,26.8,2,25.4
		c-0.8-1.3-1.3-2.8-1.3-4.3c0-4,0-8.1,0-12.1c0-0.7,0.1-1.5,0.3-2.2C1.7,4.6,2.9,3,4.8,1.9c1.3-0.8,2.6-1.1,4.1-1.1c4,0,8,0,12,0
		c0.2,0,0.5,0,0.7,0c0.7,0.1,1.3,0.2,2,0.4c1.9,0.7,3.4,1.9,4.5,3.7c0.6,1,1,2.2,1.1,3.4c0,0.1,0,0.2,0,0.3c0,4.3,0,8.6,0,12.8
		c0,0.1,0,0.2,0,0.3c-0.1,0.7-0.2,1.4-0.5,2.1c-0.6,1.7-1.7,3-3.2,4c-1.2,0.8-2.5,1.3-3.9,1.4C21.6,29.2,21.5,29.2,21.4,29.3z
		 M27.1,15c0-2,0-3.9,0-5.9c0-0.4,0-0.8-0.1-1.2c-0.2-1.2-0.8-2.3-1.6-3.1C24.2,3.6,22.7,3,21,3c-3.9,0-7.9,0-11.8,0
		C8.7,2.9,8.3,3,7.9,3C6.7,3.3,5.6,3.8,4.8,4.7C3.5,5.9,2.9,7.4,2.9,9.1c0,4,0,7.9,0,11.9c0,0.5,0.1,1,0.2,1.5
		c0.6,2.7,3,4.6,5.9,4.6c4,0,8,0,12,0c0.9,0,1.8-0.2,2.6-0.6c1.3-0.6,2.3-1.6,2.9-2.9c0.4-0.8,0.6-1.7,0.6-2.6
		C27.1,19,27.1,17,27.1,15z"/>
	<path class="st0" d="M22.7,15c0,4.2-3.5,7.7-7.7,7.7S7.3,19.2,7.3,15s3.5-7.7,7.7-7.7S22.7,10.8,22.7,15z M15,9.5
		c-3,0-5.5,2.4-5.5,5.5c0,3,2.4,5.5,5.5,5.5c3,0,5.5-2.4,5.5-5.5C20.5,12,18,9.5,15,9.5z"/>
	<path class="st0" d="M23.2,5.1c0.9,0,1.6,0.7,1.6,1.7c0,0.9-0.7,1.6-1.7,1.6c-0.9,0-1.6-0.7-1.6-1.7C21.6,5.9,22.3,5.1,23.2,5.1z"
		/>
</g>
</svg>
