<?xml version="1.0" encoding="utf-8"?>
<!-- Generator: Adobe Illustrator 21.1.0, SVG Export Plug-In . SVG Version: 6.00 Build 0)  -->
<svg version="1.1" id="Monogram_copy_8" xmlns="http://www.w3.org/2000/svg" xmlns:xlink="http://www.w3.org/1999/xlink" x="0px"
	 y="0px" viewBox="0 0 30 30" style="enable-background:new 0 0 30 30;" xml:space="preserve">
<style type="text/css">
	.st0{fill:#7A7A7A;}
</style>
<g>
	<path class="st0" d="M0.8,24c3.1,0.3,6-0.5,8.5-2.4c-2.7-0.2-4.5-1.6-5.5-4.1c0.9,0.1,1.7,0.1,2.6-0.1c-3.4-0.8-4.7-3.8-4.6-5.8
		c0.4,0.2,0.8,0.3,1.2,0.5c0.4,0.1,0.9,0.2,1.3,0.2c-1.2-0.9-2-2.1-2.4-3.6c-0.2-1.5,0-2.9,0.8-4.2c3.2,3.7,7.2,5.8,12.1,6.1
		c0-0.4-0.1-0.7-0.1-1.1c-0.1-1.1,0.2-2.2,0.7-3.1c0.7-1.3,1.8-2.2,3.2-2.7C20.8,3,22.7,3.4,24.5,5c0.2,0.2,0.4,0.3,0.7,0.2
		c1.1-0.3,2.1-0.6,3-1.2c0.1,0,0.2-0.1,0.3-0.1C28,5.2,27.2,6.2,26,7c1.1-0.1,2.1-0.4,3.2-0.8C29,6.5,28.8,6.8,28.6,7
		c-0.6,0.7-1.3,1.4-2.1,2c-0.1,0.1-0.2,0.2-0.2,0.4c0.1,3.9-1,7.4-3.3,10.5c-1.8,2.5-4.1,4.4-7,5.5c-2.3,0.9-4.6,1.3-7,1.2
		c-2.2-0.1-4.2-0.6-6.2-1.5C2.1,24.8,1.5,24.4,0.8,24C0.8,24.1,0.8,24,0.8,24z"/>
</g>
</svg>
